<svg width="256" height="112" viewBox="0 0 256 112" fill="none" xmlns="http://www.w3.org/2000/svg">
<path d="M24.847 25.2H35.0265L56.3489 84.0001H47.1329L43.0696 72.8281H16.804L12.7824 84.0001H3.52454L24.847 25.2ZM20.0296 64.0921H39.844L29.9158 36.7919L20.0296 64.0921ZM56.5789 84.0001V25.2H65.2922V84.0001H56.5789ZM68.2167 84.0001V25.2H89.7905C92.9742 25.2 95.8368 25.9839 98.3782 27.5519C100.92 29.1199 102.93 31.2339 104.41 33.8939C105.919 36.5259 106.673 39.4659 106.673 42.7139C106.673 45.4579 106.156 47.9641 105.123 50.2321C104.117 52.5001 102.693 54.4321 100.85 56.0281C99.0345 57.6241 96.9539 58.7721 94.608 59.4721L108.767 84.0001H98.6714L84.9312 60.2701H76.93V84.0001H68.2167ZM76.93 51.5341H88.8689C90.5446 51.5341 92.0666 51.1141 93.435 50.2741C94.8314 49.4341 95.9345 48.3141 96.7444 46.9141C97.5543 45.5139 97.9593 43.9319 97.9593 42.1679C97.9593 40.4039 97.5543 38.8219 96.7444 37.4219C95.9345 35.9939 94.8314 34.8739 93.435 34.0619C92.0666 33.2219 90.5446 32.8019 88.8689 32.8019H76.93V51.5341ZM109.175 84.0001V25.2H128.57C132.62 25.2 136.418 25.97 139.965 27.5099C143.512 29.0219 146.625 31.1359 149.306 33.8519C151.987 36.5399 154.082 39.6619 155.59 43.2179C157.126 46.7461 157.894 50.5401 157.894 54.6001C157.894 58.6601 157.126 62.4681 155.59 66.0241C154.082 69.5521 151.987 72.6741 149.306 75.3901C146.625 78.0781 143.512 80.1921 139.965 81.7321C136.418 83.2441 132.62 84.0001 128.57 84.0001H109.175ZM117.888 75.2641H128.57C131.419 75.2641 134.072 74.7321 136.53 73.6681C139.015 72.6041 141.208 71.1201 143.107 69.2161C145.034 67.3121 146.528 65.1141 147.589 62.6221C148.65 60.1301 149.181 57.4561 149.181 54.6001C149.181 51.7441 148.65 49.0701 147.589 46.5779C146.528 44.0859 145.034 41.8879 143.107 39.9839C141.208 38.0799 139.015 36.5959 136.53 35.5319C134.072 34.4679 131.419 33.9359 128.57 33.9359H117.888V75.2641ZM172.643 25.2H182.823L204.145 84.0001H194.929L190.866 72.8281H164.6L160.579 84.0001H151.321L172.643 25.2ZM167.826 64.0921H187.64L177.712 36.7919L167.826 64.0921Z" fill="black"/>
<mask id="path-2-outside-1_618_2" maskUnits="userSpaceOnUse" x="205" y="60" width="34" height="25" fill="black">
<rect fill="white" x="205" y="60" width="34" height="25"/>
<path d="M208.134 83.1705C207.608 83.1705 207.157 82.9822 206.781 82.6058C206.404 82.2294 206.216 81.7784 206.216 81.2528C206.216 80.7273 206.404 80.2763 206.781 79.8999C207.157 79.5234 207.608 79.3352 208.134 79.3352C208.659 79.3352 209.11 79.5234 209.487 79.8999C209.863 80.2763 210.051 80.7273 210.051 81.2528C210.051 81.6009 209.962 81.9205 209.785 82.2116C209.614 82.5028 209.384 82.7372 209.092 82.9148C208.808 83.0852 208.489 83.1705 208.134 83.1705ZM215.799 83H213.029L221.04 61.1818H223.767L231.779 83H229.009L222.489 64.6335H222.319L215.799 83ZM216.821 74.4773H227.986V76.821H216.821V74.4773ZM237.819 61.1818V83H235.177V61.1818H237.819Z"/>
</mask>
<path d="M206.781 82.6058L207.488 81.8987L207.488 81.8987L206.781 82.6058ZM209.487 79.8999L210.194 79.1928L210.194 79.1928L209.487 79.8999ZM209.785 82.2116L208.931 81.691L208.926 81.6987L208.922 81.7065L209.785 82.2116ZM209.092 82.9148L209.607 83.7723L209.613 83.7686L209.092 82.9148ZM208.134 82.1705C207.877 82.1705 207.679 82.0903 207.488 81.8987L206.073 83.3129C206.635 83.8742 207.339 84.1705 208.134 84.1705V82.1705ZM207.488 81.8987C207.296 81.7071 207.216 81.5094 207.216 81.2528H205.216C205.216 82.0474 205.512 82.7517 206.073 83.3129L207.488 81.8987ZM207.216 81.2528C207.216 80.9963 207.296 80.7986 207.488 80.607L206.073 79.1928C205.512 79.754 205.216 80.4582 205.216 81.2528H207.216ZM207.488 80.607C207.679 80.4154 207.877 80.3352 208.134 80.3352V78.3352C207.339 78.3352 206.635 78.6315 206.073 79.1928L207.488 80.607ZM208.134 80.3352C208.39 80.3352 208.588 80.4154 208.779 80.607L210.194 79.1928C209.632 78.6315 208.928 78.3352 208.134 78.3352V80.3352ZM208.779 80.607C208.971 80.7986 209.051 80.9963 209.051 81.2528H211.051C211.051 80.4582 210.755 79.754 210.194 79.1928L208.779 80.607ZM209.051 81.2528C209.051 81.4211 209.011 81.56 208.931 81.691L210.639 82.7323C210.914 82.2809 211.051 81.7806 211.051 81.2528H209.051ZM208.922 81.7065C208.836 81.8533 208.723 81.9686 208.572 82.061L209.613 83.7686C210.044 83.5059 210.393 83.1524 210.648 82.7168L208.922 81.7065ZM208.578 82.0573C208.46 82.1278 208.321 82.1705 208.134 82.1705V84.1705C208.656 84.1705 209.156 84.0427 209.607 83.7723L208.578 82.0573ZM215.799 83V84H216.505L216.741 83.3345L215.799 83ZM213.029 83L212.09 82.6553L211.596 84H213.029V83ZM221.04 61.1818V60.1818H220.342L220.101 60.8371L221.04 61.1818ZM223.767 61.1818L224.706 60.8371L224.465 60.1818H223.767V61.1818ZM231.779 83V84H233.211L232.717 82.6553L231.779 83ZM229.009 83L228.066 83.3345L228.303 84H229.009V83ZM222.489 64.6335L223.431 64.299L223.195 63.6335H222.489V64.6335ZM222.319 64.6335V63.6335H221.612L221.376 64.299L222.319 64.6335ZM216.821 74.4773V73.4773H215.821V74.4773H216.821ZM227.986 74.4773H228.986V73.4773H227.986V74.4773ZM227.986 76.821V77.821H228.986V76.821H227.986ZM216.821 76.821H215.821V77.821H216.821V76.821ZM215.799 82H213.029V84H215.799V82ZM213.967 83.3447L221.979 61.5265L220.101 60.8371L212.09 82.6553L213.967 83.3447ZM221.04 62.1818H223.767V60.1818H221.04V62.1818ZM222.829 61.5265L230.84 83.3447L232.717 82.6553L224.706 60.8371L222.829 61.5265ZM231.779 82H229.009V84H231.779V82ZM229.951 82.6655L223.431 64.299L221.547 64.9681L228.066 83.3345L229.951 82.6655ZM222.489 63.6335H222.319V65.6335H222.489V63.6335ZM221.376 64.299L214.856 82.6655L216.741 83.3345L223.261 64.9681L221.376 64.299ZM216.821 75.4773H227.986V73.4773H216.821V75.4773ZM226.986 74.4773V76.821H228.986V74.4773H226.986ZM227.986 75.821H216.821V77.821H227.986V75.821ZM217.821 76.821V74.4773H215.821V76.821H217.821ZM237.819 61.1818H238.819V60.1818H237.819V61.1818ZM237.819 83V84H238.819V83H237.819ZM235.177 83H234.177V84H235.177V83ZM235.177 61.1818V60.1818H234.177V61.1818H235.177ZM236.819 61.1818V83H238.819V61.1818H236.819ZM237.819 82H235.177V84H237.819V82ZM236.177 83V61.1818H234.177V83H236.177ZM235.177 62.1818H237.819V60.1818H235.177V62.1818Z" fill="black" mask="url(#path-2-outside-1_618_2)"/>
</svg>
