<svg width="32" height="32" viewBox="0 0 32 32" fill="none" xmlns="http://www.w3.org/2000/svg">
<g clip-path="url(#clip0_606_70)">
<rect width="32" height="32" rx="2" fill="black"/>
<rect width="32" height="32" rx="2" fill="url(#paint0_linear_606_70)" fill-opacity="0.2"/>
<path d="M-2.46307 32H-5.23295L2.77841 10.1818H5.50568L13.517 32H10.7472L4.22727 13.6335H4.05682L-2.46307 32ZM-1.44034 23.4773H9.72443V25.821H-1.44034V23.4773ZM-1.86648 68.1705C-2.39205 68.1705 -2.84304 67.9822 -3.21946 67.6058C-3.59588 67.2294 -3.78409 66.7784 -3.78409 66.2528C-3.78409 65.7273 -3.59588 65.2763 -3.21946 64.8999C-2.84304 64.5234 -2.39205 64.3352 -1.86648 64.3352C-1.34091 64.3352 -0.889915 64.5234 -0.513494 64.8999C-0.137074 65.2763 0.0511364 65.7273 0.0511364 66.2528C0.0511364 66.6009 -0.037642 66.9205 -0.215199 67.2116C-0.385653 67.5028 -0.616477 67.7372 -0.90767 67.9148C-1.19176 68.0852 -1.51136 68.1705 -1.86648 68.1705ZM-2.46307 104H-5.23295L2.77841 82.1818H5.50568L13.517 104H10.7472L4.22727 85.6335H4.05682L-2.46307 104ZM-1.44034 95.4773H9.72443V97.821H-1.44034V95.4773ZM-0.715909 118.182V140H-3.35795V118.182H-0.715909Z" fill="url(#paint1_linear_606_70)"/>
<path d="M-2.46307 32H-5.23295L2.77841 10.1818H5.50568L13.517 32H10.7472L4.22727 13.6335H4.05682L-2.46307 32ZM-1.44034 23.4773H9.72443V25.821H-1.44034V23.4773ZM-1.86648 68.1705C-2.39205 68.1705 -2.84304 67.9822 -3.21946 67.6058C-3.59588 67.2294 -3.78409 66.7784 -3.78409 66.2528C-3.78409 65.7273 -3.59588 65.2763 -3.21946 64.8999C-2.84304 64.5234 -2.39205 64.3352 -1.86648 64.3352C-1.34091 64.3352 -0.889915 64.5234 -0.513494 64.8999C-0.137074 65.2763 0.0511364 65.7273 0.0511364 66.2528C0.0511364 66.6009 -0.037642 66.9205 -0.215199 67.2116C-0.385653 67.5028 -0.616477 67.7372 -0.90767 67.9148C-1.19176 68.0852 -1.51136 68.1705 -1.86648 68.1705ZM-2.46307 104H-5.23295L2.77841 82.1818H5.50568L13.517 104H10.7472L4.22727 85.6335H4.05682L-2.46307 104ZM-1.44034 95.4773H9.72443V97.821H-1.44034V95.4773ZM-0.715909 118.182V140H-3.35795V118.182H-0.715909Z" fill="url(#paint2_linear_606_70)"/>
<path d="M-2.46307 32H-5.23295L2.77841 10.1818H5.50568L13.517 32H10.7472L4.22727 13.6335H4.05682L-2.46307 32ZM-1.44034 23.4773H9.72443V25.821H-1.44034V23.4773ZM-1.86648 68.1705C-2.39205 68.1705 -2.84304 67.9822 -3.21946 67.6058C-3.59588 67.2294 -3.78409 66.7784 -3.78409 66.2528C-3.78409 65.7273 -3.59588 65.2763 -3.21946 64.8999C-2.84304 64.5234 -2.39205 64.3352 -1.86648 64.3352C-1.34091 64.3352 -0.889915 64.5234 -0.513494 64.8999C-0.137074 65.2763 0.0511364 65.7273 0.0511364 66.2528C0.0511364 66.6009 -0.037642 66.9205 -0.215199 67.2116C-0.385653 67.5028 -0.616477 67.7372 -0.90767 67.9148C-1.19176 68.0852 -1.51136 68.1705 -1.86648 68.1705ZM-2.46307 104H-5.23295L2.77841 82.1818H5.50568L13.517 104H10.7472L4.22727 85.6335H4.05682L-2.46307 104ZM-1.44034 95.4773H9.72443V97.821H-1.44034V95.4773ZM-0.715909 118.182V140H-3.35795V118.182H-0.715909Z" fill="url(#paint3_linear_606_70)"/>
<path d="M14.6889 31.0284C14.6013 31.0284 14.5262 30.997 14.4634 30.9343C14.4007 30.8716 14.3693 30.7964 14.3693 30.7088C14.3693 30.6212 14.4007 30.546 14.4634 30.4833C14.5262 30.4206 14.6013 30.3892 14.6889 30.3892C14.7765 30.3892 14.8517 30.4206 14.9144 30.4833C14.9772 30.546 15.0085 30.6212 15.0085 30.7088C15.0085 30.7668 14.9937 30.8201 14.9641 30.8686C14.9357 30.9171 14.8973 30.9562 14.8487 30.9858C14.8014 31.0142 14.7481 31.0284 14.6889 31.0284ZM16.563 31.0639C16.3902 31.0639 16.2334 31.0314 16.0925 30.9663C15.9516 30.9 15.8398 30.8047 15.7569 30.6804C15.6741 30.5549 15.6326 30.4034 15.6326 30.2259C15.6326 30.0696 15.6634 29.9429 15.725 29.8459C15.7865 29.7476 15.8688 29.6707 15.9718 29.6151C16.0748 29.5594 16.1884 29.518 16.3127 29.4908C16.4382 29.4624 16.5642 29.4399 16.6909 29.4233C16.8566 29.402 16.9909 29.386 17.0939 29.3754C17.1981 29.3635 17.2739 29.344 17.3212 29.3168C17.3697 29.2895 17.394 29.2422 17.394 29.1747V29.1605C17.394 28.9853 17.3461 28.8492 17.2502 28.7521C17.1555 28.6551 17.0117 28.6065 16.8187 28.6065C16.6187 28.6065 16.4618 28.6503 16.3482 28.7379C16.2346 28.8255 16.1547 28.919 16.1085 29.0185L15.7108 28.8764C15.7818 28.7107 15.8765 28.5817 15.9949 28.4893C16.1144 28.3958 16.2446 28.3307 16.3855 28.294C16.5275 28.2562 16.6672 28.2372 16.8045 28.2372C16.8921 28.2372 16.9927 28.2479 17.1064 28.2692C17.2212 28.2893 17.3319 28.3313 17.4384 28.3952C17.5461 28.4592 17.6355 28.5556 17.7065 28.6847C17.7775 28.8137 17.813 28.9865 17.813 29.2031V31H17.394V30.6307H17.3727C17.3443 30.6899 17.2969 30.7532 17.2306 30.8207C17.1644 30.8881 17.0762 30.9455 16.9661 30.9929C16.856 31.0402 16.7217 31.0639 16.563 31.0639ZM16.627 30.6875C16.7927 30.6875 16.9324 30.6549 17.046 30.5898C17.1608 30.5247 17.2472 30.4407 17.3052 30.3377C17.3644 30.2347 17.394 30.1264 17.394 30.0128V29.6293C17.3762 29.6506 17.3372 29.6701 17.2768 29.6879C17.2176 29.7044 17.149 29.7192 17.0708 29.7322C16.9939 29.7441 16.9187 29.7547 16.8453 29.7642C16.7731 29.7725 16.7145 29.7796 16.6696 29.7855C16.5607 29.7997 16.4589 29.8228 16.3642 29.8548C16.2707 29.8855 16.1949 29.9323 16.1369 29.995C16.0801 30.0566 16.0517 30.1406 16.0517 30.2472C16.0517 30.3928 16.1055 30.5028 16.2132 30.5774C16.3221 30.6508 16.46 30.6875 16.627 30.6875ZM18.5779 31V28.2727H18.9969V31H18.5779ZM18.7909 27.8182C18.7093 27.8182 18.6388 27.7904 18.5796 27.7347C18.5216 27.6791 18.4926 27.6122 18.4926 27.5341C18.4926 27.456 18.5216 27.3891 18.5796 27.3335C18.6388 27.2778 18.7093 27.25 18.7909 27.25C18.8726 27.25 18.9424 27.2778 19.0004 27.3335C19.0596 27.3891 19.0892 27.456 19.0892 27.5341C19.0892 27.6122 19.0596 27.6791 19.0004 27.7347C18.9424 27.7904 18.8726 27.8182 18.7909 27.8182Z" fill="url(#paint4_linear_606_70)"/>
</g>
<defs>
<linearGradient id="paint0_linear_606_70" x1="16" y1="0" x2="16" y2="32" gradientUnits="userSpaceOnUse">
<stop stop-opacity="0"/>
<stop offset="1" stop-color="#ACACAC"/>
</linearGradient>
<linearGradient id="paint1_linear_606_70" x1="4.5" y1="3" x2="4.5" y2="32" gradientUnits="userSpaceOnUse">
<stop stop-color="#D9D9D9"/>
<stop offset="1" stop-color="#D9D9D9" stop-opacity="0"/>
</linearGradient>
<linearGradient id="paint2_linear_606_70" x1="4.5" y1="3" x2="4.5" y2="32" gradientUnits="userSpaceOnUse">
<stop stop-color="#D9D9D9"/>
<stop offset="1" stop-color="#D9D9D9" stop-opacity="0"/>
</linearGradient>
<linearGradient id="paint3_linear_606_70" x1="4.5" y1="3" x2="4.5" y2="32" gradientUnits="userSpaceOnUse">
<stop stop-color="#D9D9D9"/>
<stop offset="1" stop-color="#D9D9D9" stop-opacity="0"/>
</linearGradient>
<linearGradient id="paint4_linear_606_70" x1="17" y1="26" x2="17" y2="32" gradientUnits="userSpaceOnUse">
<stop stop-color="#D9D9D9"/>
<stop offset="1" stop-color="#D9D9D9" stop-opacity="0"/>
</linearGradient>
<clipPath id="clip0_606_70">
<rect width="32" height="32" rx="2" fill="white"/>
</clipPath>
</defs>
</svg>
